<svg xmlns="http://www.w3.org/2000/svg" version="1.1" xmlns:xlink="http://www.w3.org/1999/xlink" xmlns:svgjs="http://svgjs.com/svgjs" width="1440" height="560" preserveAspectRatio="none" viewBox="0 0 1440 560"><g mask="url(&quot;#SvgjsMask1001&quot;)" fill="none"><rect width="1440" height="560" x="0" y="0" fill="rgba(157, 205, 233, 1)"></rect><path d="M0,397.79C74.972,389.633,149.471,371.737,209.941,326.674C268.105,283.33,301.321,217.351,330.969,151.149C360.426,85.375,388.094,16.95,380.758,-54.745C373.263,-127.992,342.877,-200.082,289.807,-251.119C238.743,-300.227,165.447,-312.465,96.378,-328.234C31.17,-343.122,-36.606,-361.833,-99.858,-340.085C-162.011,-318.715,-196.768,-257.16,-243.812,-211.264C-295.853,-160.493,-373.47,-126.793,-390.85,-56.196C-408.434,15.23,-357.329,82.689,-333.295,152.211C-306.428,229.927,-307.709,327.018,-241.509,375.795C-175.086,424.737,-82.023,406.715,0,397.79" fill="#5daddb"></path><path d="M1440 994.635C1524.864 998.9639999999999 1611.031 983.27 1683.437 938.796 1756.663 893.818 1808.064 822.53 1845.851 745.346 1884.406 666.592 1919.607 579.432 1901.359 493.66700000000003 1883.475 409.613 1799.399 361.799 1749.377 291.923 1692.761 212.83499999999998 1678.08 92.63900000000001 1588.005 55.94 1498.181 19.34299999999996 1396.247 70.88299999999998 1308.549 112.31700000000001 1230.143 149.361 1167.942 209.786 1115.771 279.054 1066.395 344.61199999999997 1034.005 418.88 1017.1569999999999 499.204 999.395 583.886 979.517 675.1800000000001 1016.2529999999999 753.519 1052.887 831.6410000000001 1137.0230000000001 872.076 1212.017 914.748 1283.451 955.395 1357.9180000000001 990.448 1440 994.635" fill="#ddeef7"></path></g><defs><mask id="SvgjsMask1001"><rect width="1440" height="560" fill="#ffffff"></rect></mask></defs></svg>