<svg xmlns="http://www.w3.org/2000/svg" viewBox="0 0 244 244" style="enable-background:new 0 0 244 244" fill="#fff"
    xml:space="preserve">
    <path
        d="M244 156.153V45.026a9 9 0 0 0-9-9H46.331l-5.487-15.089a9 9 0 0 0-8.458-5.925H9c-4.971 0-9 4.029-9 9s4.029 9 9 9h17.083L83.301 190.37a8.999 8.999 0 0 0 8.458 5.925h6.831a21.668 21.668 0 0 0-2.923 10.885c0 12.024 9.783 21.808 21.808 21.808s21.809-9.783 21.809-21.808c0-3.963-1.068-7.679-2.923-10.885h66.946a21.668 21.668 0 0 0-2.923 10.885c0 12.024 9.783 21.808 21.808 21.808s21.809-9.783 21.809-21.808c0-4.628-1.454-8.922-3.922-12.456a9 9 0 0 0-5.078-16.429H98.063l-4.779-13.142H235a9 9 0 0 0 9-9zm-126.525 54.834c-2.1 0-3.808-1.708-3.808-3.808s1.708-3.809 3.808-3.809 3.809 1.709 3.809 3.809-1.71 3.808-3.809 3.808zm104.716 0c-2.1 0-3.808-1.708-3.808-3.808s1.708-3.809 3.808-3.809 3.809 1.71 3.809 3.81-1.709 3.807-3.809 3.807zm-95.716-101.193V91.385H170v18.409h-43.525zm43.525 18v19.359h-43.525v-19.359H170zm-96.839-17.983-6.7-18.426h42.014v18.409H73.5c-.115 0-.226.013-.339.017zm53.314-36.426V54.026H170v19.358h-43.525zm61.525 18h38v18.409h-38V91.385zm38-18h-38V54.026h38v19.359zM108.475 54.026v19.358H59.916l-7.039-19.358h55.598zm-28.776 73.768h28.775v19.359H86.739l-7.04-19.359zM188 147.153v-19.359h38v19.359h-38z" />
</svg>